<svg width="30" height="32" viewBox="0 0 30 32" fill="none" xmlns="http://www.w3.org/2000/svg">
<g filter="url(#filter0_d_131_1352)">
<path d="M20.7308 4.48604L20.655 8.59187C20.6441 9.1552 21.0016 9.9027 21.4566 10.2385L24.1433 12.2752C25.8658 13.5752 25.5841 15.1677 23.5258 15.8177L20.0266 16.9119C19.4416 17.096 18.8241 17.7352 18.6725 18.331L17.8383 21.516C17.1775 24.0294 15.5308 24.2785 14.1658 22.0685L12.2591 18.981C11.9125 18.4177 11.0891 17.9952 10.4391 18.0277L6.8208 18.2119C4.23163 18.3419 3.49497 16.8469 5.18497 14.8752L7.32997 12.3835C7.7308 11.9177 7.91497 11.051 7.7308 10.466L6.63663 6.96687C5.99747 4.90854 7.1458 3.77104 9.1933 4.4427L12.3891 5.49354C12.9308 5.66687 13.7433 5.5477 14.1983 5.21187L17.535 2.80687C19.3333 1.50687 20.7741 2.2652 20.7308 4.48604Z" fill="#D68B92"/>
<path opacity="0.4" d="M25.2268 22.1758L21.9443 18.8933C21.7914 18.7422 21.5851 18.6575 21.3701 18.6575C21.1551 18.6575 20.9488 18.7422 20.7959 18.8933C20.4818 19.2075 20.4818 19.7275 20.7959 20.0416L24.0784 23.3241C24.2409 23.4866 24.4468 23.5625 24.6526 23.5625C24.8584 23.5625 25.0643 23.4866 25.2268 23.3241C25.5409 23.01 25.5409 22.49 25.2268 22.1758Z" fill="black"/>
</g>
<defs>
<filter id="filter0_d_131_1352" x="-2" y="0" width="34" height="34" filterUnits="userSpaceOnUse" color-interpolation-filters="sRGB">
<feFlood flood-opacity="0" result="BackgroundImageFix"/>
<feColorMatrix in="SourceAlpha" type="matrix" values="0 0 0 0 0 0 0 0 0 0 0 0 0 0 0 0 0 0 127 0" result="hardAlpha"/>
<feOffset dy="4"/>
<feGaussianBlur stdDeviation="2"/>
<feComposite in2="hardAlpha" operator="out"/>
<feColorMatrix type="matrix" values="0 0 0 0 0 0 0 0 0 0 0 0 0 0 0 0 0 0 0.25 0"/>
<feBlend mode="normal" in2="BackgroundImageFix" result="effect1_dropShadow_131_1352"/>
<feBlend mode="normal" in="SourceGraphic" in2="effect1_dropShadow_131_1352" result="shape"/>
</filter>
</defs>
</svg>
