<svg width="24" height="24" viewBox="0 0 24 24" fill="none" xmlns="http://www.w3.org/2000/svg">
<path opacity="0.4" d="M21.6499 10.03C21.2599 9.46997 20.5699 9.14997 19.7799 9.14997H15.6799C15.4099 9.14997 15.1599 9.03998 14.9899 8.83998C14.8099 8.63998 14.7399 8.35997 14.7799 8.06997L15.2899 4.78997C15.5099 3.80997 14.8599 2.70998 13.8799 2.37998C12.9699 2.03998 11.8999 2.49998 11.4699 3.14998L7.24988 9.41998L7.12988 9.61998V18.46L7.27988 18.61L10.4499 21.06C10.8699 21.48 11.8199 21.71 12.4899 21.71H16.3899C17.7299 21.71 19.0799 20.7 19.3799 19.47L21.8399 11.98C22.0999 11.27 22.0299 10.58 21.6499 10.03Z" fill="black"/>
<path d="M5.21 6.37891H4.18C2.63 6.37891 2 6.97891 2 8.45891V18.5189C2 19.9989 2.63 20.5989 4.18 20.5989H5.21C6.76 20.5989 7.39 19.9989 7.39 18.5189V8.45891C7.39 6.97891 6.76 6.37891 5.21 6.37891Z" fill="black"/>
</svg>
