<svg width="30" height="30" viewBox="0 0 30 30" fill="none" xmlns="http://www.w3.org/2000/svg">
<path opacity="0.4" d="M22.475 13.4875V18.4875C22.475 18.8125 22.4625 19.125 22.425 19.425C22.1375 22.8 20.15 24.475 16.4875 24.475H15.9875C15.675 24.475 15.375 24.625 15.1875 24.875L13.6875 26.875C13.025 27.7625 11.95 27.7625 11.2875 26.875L9.7875 24.875C9.68744 24.7585 9.56516 24.6631 9.42779 24.5944C9.29043 24.5257 9.14074 24.4851 8.9875 24.475H8.4875C4.5 24.475 2.5 23.4875 2.5 18.4875V13.4875C2.5 9.825 4.1875 7.8375 7.55 7.55C7.85 7.5125 8.1625 7.5 8.4875 7.5H16.4875C20.475 7.5 22.475 9.5 22.475 13.4875Z" fill="#D68B92"/>
<path d="M12.485 17.5C11.785 17.5 11.235 16.9375 11.235 16.25C11.235 15.5625 11.7975 15 12.485 15C13.1725 15 13.735 15.5625 13.735 16.25C13.735 16.9375 13.185 17.5 12.485 17.5ZM16.86 17.5C16.16 17.5 15.61 16.9375 15.61 16.25C15.61 15.5625 16.1725 15 16.86 15C17.5475 15 18.11 15.5625 18.11 16.25C18.11 16.9375 17.5475 17.5 16.86 17.5ZM8.125 17.5C7.425 17.5 6.875 16.9375 6.875 16.25C6.875 15.5625 7.4375 15 8.125 15C8.8125 15 9.375 15.5625 9.375 16.25C9.375 16.9375 8.8125 17.5 8.125 17.5Z" fill="black"/>
<path d="M27.475 8.4875V13.4875C27.475 17.1625 25.7875 19.1375 22.425 19.425C22.4625 19.125 22.475 18.8125 22.475 18.4875V13.4875C22.475 9.5 20.475 7.5 16.4875 7.5H8.48755C8.16255 7.5 7.85005 7.5125 7.55005 7.55C7.83755 4.1875 9.82505 2.5 13.4875 2.5H21.4875C25.475 2.5 27.475 4.5 27.475 8.4875Z" fill="#75535A"/>
</svg>
