<svg width="28" height="28" viewBox="0 0 28 28" fill="none" xmlns="http://www.w3.org/2000/svg">
<path d="M13.9999 5.54161C13.8832 5.54161 13.7666 5.52994 13.6616 5.50661C13.5449 5.48328 13.4399 5.44828 13.3349 5.41328C13.2299 5.36661 13.1249 5.30828 13.0316 5.24994C12.9382 5.17994 12.8449 5.10994 12.7632 5.02828C12.5798 4.84518 12.4393 4.62359 12.352 4.37954C12.2647 4.13549 12.2327 3.87508 12.2584 3.61715C12.284 3.35923 12.3667 3.11023 12.5005 2.88819C12.6342 2.66615 12.8156 2.4766 13.0316 2.33328C13.1249 2.27494 13.2299 2.21661 13.3349 2.18161C13.4399 2.13494 13.5449 2.09994 13.6616 2.07661C13.9008 2.0297 14.1473 2.03335 14.3851 2.08732C14.6228 2.14129 14.8467 2.24438 15.0423 2.38998C15.2379 2.53559 15.4009 2.72048 15.5208 2.93279C15.6407 3.14511 15.7148 3.38015 15.7385 3.62283C15.7622 3.8655 15.7349 4.11045 15.6584 4.34195C15.5818 4.57345 15.4577 4.78638 15.2939 4.96706C15.1302 5.14775 14.9305 5.2922 14.7077 5.39115C14.4848 5.4901 14.2437 5.54135 13.9999 5.54161ZM13.9999 10.7916C13.8832 10.7916 13.7666 10.7799 13.6616 10.7566C13.5449 10.7333 13.4399 10.6983 13.3349 10.6633C13.2299 10.6166 13.1249 10.5583 13.0316 10.4999C12.9382 10.4299 12.8449 10.3599 12.7632 10.2783C12.5798 10.0952 12.4393 9.87359 12.352 9.62954C12.2647 9.38549 12.2327 9.12508 12.2584 8.86715C12.284 8.60923 12.3667 8.36023 12.5005 8.13819C12.6342 7.91615 12.8156 7.7266 13.0316 7.58328C13.1249 7.52494 13.2299 7.46661 13.3349 7.43161C13.5445 7.33952 13.7709 7.29196 13.9999 7.29196C14.2288 7.29196 14.4553 7.33952 14.6649 7.43161C14.7699 7.46661 14.8749 7.52494 14.9682 7.58328C15.1842 7.7266 15.3656 7.91615 15.4993 8.13819C15.633 8.36023 15.7157 8.60923 15.7414 8.86715C15.7671 9.12508 15.7351 9.38549 15.6478 9.62954C15.5605 9.87359 15.42 10.0952 15.2366 10.2783C15.1549 10.3599 15.0616 10.4299 14.9682 10.4999C14.8749 10.5583 14.7699 10.6166 14.6649 10.6633C14.5599 10.6983 14.4549 10.7333 14.3382 10.7566C14.2332 10.7799 14.1166 10.7916 13.9999 10.7916ZM13.9999 15.4583C13.8832 15.4583 13.7666 15.4466 13.6616 15.4233C13.5449 15.3999 13.4399 15.3649 13.3349 15.3299C13.2299 15.2833 13.1249 15.2249 13.0316 15.1666C12.9382 15.0966 12.8449 15.0266 12.7632 14.9449C12.5156 14.7015 12.3486 14.388 12.2849 14.0466C12.2292 13.765 12.2438 13.474 12.3272 13.1993C12.4106 12.9246 12.5603 12.6747 12.7632 12.4716C12.8449 12.3899 12.9382 12.3199 13.0316 12.2499C13.1249 12.1916 13.2299 12.1333 13.3349 12.0866C13.4399 12.0516 13.5449 12.0166 13.6616 11.9933C13.9431 11.9379 14.2339 11.9527 14.5084 12.0363C14.7829 12.1199 15.0326 12.2698 15.2355 12.4727C15.4384 12.6755 15.5883 12.9252 15.6719 13.1997C15.7555 13.4742 15.7702 13.7651 15.7149 14.0466C15.6916 14.1633 15.6566 14.2683 15.6099 14.3733C15.5319 14.5904 15.404 14.7862 15.2366 14.9449C15.1549 15.0266 15.0616 15.0966 14.9682 15.1666C14.8749 15.2249 14.7699 15.2833 14.6649 15.3299C14.5599 15.3649 14.4549 15.3999 14.3382 15.4233C14.2332 15.4466 14.1166 15.4583 13.9999 15.4583Z" fill="#D68B92"/>
<path opacity="0.6" d="M13.9999 19.5428C13.6966 19.5428 13.3933 19.4145 13.1716 19.2045C12.9616 18.9828 12.8333 18.6795 12.8333 18.3761C12.8333 18.0728 12.9616 17.7695 13.1716 17.5478C13.4399 17.2795 13.8483 17.1628 14.2216 17.2328C14.3033 17.2445 14.3733 17.2678 14.4433 17.3028C14.5133 17.3261 14.5833 17.3611 14.6416 17.4078C14.7116 17.4545 14.7699 17.5011 14.8283 17.5478C15.0383 17.7695 15.1666 18.0728 15.1666 18.3761C15.1666 18.6795 15.0383 18.9828 14.8283 19.2045C14.7699 19.2511 14.7116 19.2978 14.6416 19.3445C14.5833 19.3911 14.5133 19.4261 14.4433 19.4495C14.3733 19.4845 14.3033 19.5078 14.2216 19.5195C14.1516 19.5311 14.0699 19.5428 13.9999 19.5428Z" fill="#EDC3C4"/>
<path opacity="0.4" d="M14 23.3334C13.7687 23.33 13.5474 23.2381 13.3817 23.0767C13.2987 22.999 13.2349 22.9032 13.195 22.7967C13.1223 22.6234 13.1074 22.4312 13.1524 22.2487C13.1975 22.0662 13.3001 21.9031 13.445 21.7835C13.59 21.6638 13.7697 21.5941 13.9574 21.5845C14.1451 21.5749 14.3309 21.6261 14.4873 21.7303C14.6437 21.8346 14.7624 21.9864 14.8257 22.1634C14.8891 22.3404 14.8938 22.533 14.8391 22.7129C14.7845 22.8927 14.6733 23.0502 14.5222 23.1619C14.3711 23.2737 14.188 23.3338 14 23.3334Z" fill="#E8D4B9"/>
<path opacity="0.2" d="M13.9999 25.7484C13.9234 25.7493 13.8475 25.7342 13.7772 25.7041C13.7069 25.6739 13.6436 25.6294 13.5915 25.5734C13.5355 25.5213 13.491 25.458 13.4608 25.3877C13.4307 25.3174 13.4156 25.2415 13.4165 25.165C13.4259 25.0167 13.4915 24.8775 13.5998 24.7758C13.7082 24.6741 13.8512 24.6174 13.9999 24.6174C14.1485 24.6174 14.2916 24.6741 14.3999 24.7758C14.5083 24.8775 14.5738 25.0167 14.5832 25.165C14.5832 25.3167 14.5249 25.4684 14.4082 25.5734C14.3561 25.6294 14.2929 25.6739 14.2226 25.7041C14.1522 25.7342 14.0764 25.7493 13.9999 25.7484Z" fill="#E8D4B9"/>
<path d="M4.08336 10.7916C3.73722 10.7919 3.39879 10.6894 3.11092 10.4972C2.82306 10.305 2.59871 10.0317 2.46629 9.71185C2.33387 9.39204 2.29933 9.04012 2.36705 8.70067C2.43477 8.36122 2.6017 8.04949 2.8467 7.80497C3.48836 7.15164 4.6667 7.15164 5.32003 7.80497C5.5035 7.98807 5.64397 8.20966 5.73129 8.45371C5.8186 8.69777 5.85057 8.95818 5.82489 9.2161C5.79921 9.47403 5.71652 9.72302 5.5828 9.94506C5.44907 10.1671 5.26767 10.3566 5.0517 10.5C4.95836 10.5583 4.85336 10.6166 4.74836 10.6516C4.53944 10.7459 4.31255 10.7937 4.08336 10.7916ZM23.9167 10.7916C23.4617 10.7916 23.0067 10.605 22.68 10.2783C22.3534 9.95164 22.1667 9.49664 22.1667 9.04164C22.1667 8.92497 22.1784 8.80831 22.2017 8.70331C22.225 8.58664 22.26 8.48164 22.295 8.37664C22.3417 8.27164 22.4 8.16664 22.4584 8.07331C22.5284 7.97997 22.5984 7.88664 22.68 7.80497C22.7617 7.72331 22.855 7.65331 22.9484 7.58331C23.0417 7.52497 23.1467 7.46664 23.2517 7.43164C23.4613 7.33955 23.6877 7.29199 23.9167 7.29199C24.1456 7.29199 24.3721 7.33955 24.5817 7.43164C24.6867 7.46664 24.7917 7.52497 24.885 7.58331C24.9784 7.65331 25.0717 7.72331 25.1534 7.80497C25.235 7.88664 25.305 7.97997 25.375 8.07331C25.4334 8.16664 25.4917 8.27164 25.5267 8.37664C25.6209 8.58557 25.6687 8.81246 25.6667 9.04164C25.6669 9.33036 25.5956 9.61463 25.4592 9.8691C25.3228 10.1236 25.1256 10.3403 24.885 10.5C24.7917 10.5583 24.6867 10.6166 24.5817 10.6633C24.4767 10.6983 24.3717 10.7333 24.255 10.7566C24.1384 10.78 24.0334 10.7916 23.9167 10.7916Z" fill="#D68B92"/>
<path opacity="0.6" d="M23.9167 14.8738C23.8467 14.8738 23.7651 14.8622 23.6951 14.8505C23.6178 14.8396 23.5429 14.816 23.4734 14.7805C23.3991 14.755 23.3284 14.7197 23.2634 14.6755C23.2051 14.6405 23.1467 14.5822 23.0884 14.5355C23.0417 14.4772 22.9834 14.4188 22.9484 14.3605C22.9042 14.2955 22.8689 14.2249 22.8434 14.1505C22.8097 14.0844 22.7861 14.0136 22.7734 13.9405C22.7617 13.8588 22.7501 13.7888 22.7501 13.7072C22.7501 13.4038 22.8784 13.1005 23.0884 12.8788L23.2634 12.7388C23.3334 12.6922 23.4034 12.6572 23.4734 12.6338C23.5434 12.5988 23.6134 12.5755 23.6951 12.5638C23.8351 12.5288 23.9867 12.5288 24.1384 12.5638C24.2201 12.5755 24.2901 12.5988 24.3601 12.6338C24.4301 12.6572 24.5001 12.6922 24.5584 12.7388C24.6284 12.7855 24.6867 12.8322 24.7451 12.8788C24.9551 13.1005 25.0834 13.4038 25.0834 13.7072C25.0834 13.7888 25.0717 13.8588 25.0601 13.9405C25.0484 14.0105 25.0251 14.0805 24.9901 14.1505C24.9667 14.2205 24.9317 14.2905 24.8851 14.3605L24.7451 14.5355C24.6867 14.5822 24.6284 14.6405 24.5584 14.6755C24.5001 14.7222 24.4301 14.7572 24.3601 14.7805C24.2901 14.8155 24.2201 14.8388 24.1384 14.8505C24.0684 14.8622 23.9867 14.8738 23.9167 14.8738ZM4.08341 14.8738C3.78008 14.8738 3.47675 14.7455 3.25508 14.5355C3.04508 14.3138 2.91675 14.0105 2.91675 13.7072C2.91675 13.4038 3.04508 13.1005 3.25508 12.8788C3.58175 12.5522 4.09508 12.4472 4.52675 12.6338C4.67841 12.6922 4.79508 12.7738 4.91175 12.8788C5.12175 13.1005 5.25008 13.4038 5.25008 13.7072C5.25008 14.0105 5.12175 14.3138 4.91175 14.5355C4.69008 14.7455 4.38675 14.8738 4.08341 14.8738Z" fill="#EDC3C4"/>
<path opacity="0.4" d="M23.9166 18.081C23.798 18.0871 23.6795 18.0691 23.5681 18.0279C23.4568 17.9868 23.355 17.9234 23.2689 17.8416C23.1828 17.7599 23.1143 17.6615 23.0674 17.5524C23.0206 17.4433 22.9964 17.3259 22.9964 17.2072C22.9964 17.0884 23.0206 16.971 23.0674 16.8619C23.1143 16.7528 23.1828 16.6544 23.2689 16.5727C23.355 16.4909 23.4568 16.4275 23.5681 16.3864C23.6795 16.3453 23.798 16.3272 23.9166 16.3333C24.1405 16.3449 24.3515 16.442 24.5059 16.6046C24.6603 16.7672 24.7464 16.9829 24.7464 17.2072C24.7464 17.4314 24.6603 17.6471 24.5059 17.8097C24.3515 17.9723 24.1405 18.0694 23.9166 18.081ZM4.08326 18.0857C3.93921 18.0853 3.79747 18.0495 3.67062 17.9812C3.54376 17.9129 3.43572 17.8144 3.35608 17.6944C3.27645 17.5744 3.22768 17.4365 3.2141 17.2931C3.20052 17.1497 3.22256 17.0052 3.27826 16.8723C3.31326 16.7673 3.38326 16.674 3.46493 16.5923C3.77993 16.2657 4.37493 16.2657 4.7016 16.5923C4.86302 16.7581 4.95486 16.9793 4.95826 17.2107C4.95486 17.442 4.86302 17.6632 4.7016 17.829C4.53766 17.9931 4.31525 18.0854 4.08326 18.0857Z" fill="#E8D4B9"/>
<path opacity="0.2" d="M23.9167 20.9999C23.835 20.9999 23.765 20.9883 23.695 20.9533C23.6221 20.9287 23.5575 20.8842 23.5084 20.8249C23.4523 20.7729 23.4078 20.7096 23.3777 20.6393C23.3475 20.569 23.3324 20.4931 23.3334 20.4166C23.3428 20.2683 23.4083 20.1291 23.5167 20.0274C23.625 19.9256 23.7681 19.869 23.9167 19.869C24.0653 19.869 24.2084 19.9256 24.3167 20.0274C24.4251 20.1291 24.4907 20.2683 24.5 20.4166C24.5 20.5683 24.4417 20.7199 24.325 20.8249C24.273 20.881 24.2097 20.9255 24.1394 20.9556C24.0691 20.9858 23.9932 21.0009 23.9167 20.9999ZM4.08337 20.9999C3.93171 20.9999 3.78004 20.9416 3.67504 20.8249C3.619 20.7729 3.57447 20.7096 3.54434 20.6393C3.5142 20.569 3.49911 20.4931 3.50004 20.4166C3.50943 20.2683 3.57497 20.1291 3.68333 20.0274C3.7917 19.9256 3.93474 19.869 4.08337 19.869C4.232 19.869 4.37505 19.9256 4.48341 20.0274C4.59178 20.1291 4.65732 20.2683 4.66671 20.4166C4.66671 20.5683 4.60837 20.7199 4.49171 20.8249C4.38671 20.9416 4.23504 20.9999 4.08337 20.9999Z" fill="#E8D4B9"/>
<path d="M9.04175 8.16664C8.81256 8.16866 8.58567 8.12089 8.37675 8.02664C8.26008 7.99164 8.16675 7.93331 8.07341 7.87497C7.8341 7.71404 7.63777 7.49703 7.50153 7.24285C7.36529 6.98867 7.29327 6.70503 7.29175 6.41664C7.29175 5.96164 7.47841 5.50664 7.80508 5.17997C8.45841 4.52664 9.62508 4.52664 10.2784 5.17997C10.4619 5.36307 10.6024 5.58466 10.6897 5.82871C10.777 6.07277 10.809 6.33318 10.7833 6.5911C10.7576 6.84903 10.6749 7.09802 10.5412 7.32006C10.4075 7.5421 10.226 7.73165 10.0101 7.87497C9.91675 7.93331 9.81175 7.99164 9.70675 8.02664C9.49783 8.12089 9.27094 8.16866 9.04175 8.16664ZM18.9584 8.16664C18.7292 8.16862 18.5023 8.12086 18.2934 8.02664C18.1884 7.99164 18.0834 7.93331 17.9901 7.87497C17.8955 7.80751 17.8059 7.73344 17.7217 7.65331C17.6401 7.57164 17.5701 7.47831 17.5001 7.38497C17.4417 7.29164 17.3834 7.18664 17.3367 7.08164C17.3017 6.97664 17.2667 6.87164 17.2434 6.75497C17.2201 6.64997 17.2084 6.53331 17.2084 6.41664C17.2099 6.12825 17.282 5.84461 17.4182 5.59043C17.5544 5.33625 17.7508 5.11924 17.9901 4.95831C18.0834 4.89997 18.1884 4.84164 18.2934 4.80664C18.503 4.71455 18.7295 4.66699 18.9584 4.66699C19.1874 4.66699 19.4138 4.71455 19.6234 4.80664C19.7284 4.84164 19.8334 4.89997 19.9267 4.95831C20.1661 5.11924 20.3624 5.33625 20.4986 5.59043C20.6349 5.84461 20.7069 6.12825 20.7084 6.41664C20.7084 6.53331 20.6967 6.64997 20.6734 6.75497C20.6501 6.87164 20.6151 6.97664 20.5801 7.08164C20.5334 7.18664 20.4751 7.29164 20.4167 7.38497C20.3467 7.47831 20.2767 7.57164 20.1951 7.65331C20.1134 7.73497 20.0201 7.80497 19.9267 7.87497C19.8334 7.93331 19.7284 7.99164 19.6234 8.02664C19.4145 8.12086 19.1876 8.16862 18.9584 8.16664ZM9.04175 13.125C8.92508 13.125 8.80841 13.1133 8.70341 13.09C8.58675 13.0666 8.48175 13.0316 8.37675 12.9966C8.16185 12.9088 7.96728 12.7777 7.80508 12.6116C7.64267 12.4492 7.51384 12.2564 7.42594 12.0443C7.33805 11.8321 7.29281 11.6046 7.29281 11.375C7.29281 11.1453 7.33805 10.9179 7.42594 10.7057C7.51384 10.4935 7.64267 10.3007 7.80508 10.1383C8.45841 9.48497 9.62508 9.48497 10.2784 10.1383C10.5234 10.3828 10.6903 10.6945 10.7581 11.034C10.8258 11.3735 10.7912 11.7254 10.6588 12.0452C10.5264 12.365 10.3021 12.6383 10.0142 12.8305C9.72632 13.0228 9.38789 13.1252 9.04175 13.125ZM18.9584 13.125C18.7292 13.127 18.5023 13.0792 18.2934 12.985C18.1884 12.95 18.0834 12.8916 17.9901 12.8333C17.8967 12.7633 17.8034 12.6933 17.7217 12.6116C17.6401 12.53 17.5701 12.4366 17.5001 12.3433C17.4417 12.25 17.3834 12.145 17.3367 12.04C17.3017 11.935 17.2667 11.83 17.2434 11.7133C17.2201 11.6083 17.2084 11.4916 17.2084 11.375C17.2084 10.92 17.3951 10.465 17.7217 10.1383C17.8034 10.0566 17.8967 9.98664 17.9901 9.91664C18.0834 9.85831 18.1884 9.79997 18.2934 9.76497C18.503 9.67288 18.7295 9.62533 18.9584 9.62533C19.1874 9.62533 19.4138 9.67288 19.6234 9.76497C19.7284 9.79997 19.8334 9.85831 19.9267 9.91664C20.1661 10.0776 20.3624 10.2946 20.4986 10.5488C20.6349 10.8029 20.7069 11.0866 20.7084 11.375C20.7084 11.4916 20.6967 11.6083 20.6734 11.7133C20.6501 11.83 20.6151 11.935 20.5801 12.04C20.5334 12.145 20.4751 12.25 20.4167 12.3433C20.3467 12.4366 20.2767 12.53 20.1951 12.6116C20.1134 12.6933 20.0201 12.7633 19.9267 12.8333C19.8334 12.8916 19.7284 12.95 19.6234 12.985C19.4145 13.0792 19.1876 13.127 18.9584 13.125Z" fill="#D68B92"/>
<path opacity="0.6" d="M9.04167 17.2083C8.89 17.2083 8.73833 17.1733 8.59833 17.1149C8.45413 17.0614 8.32291 16.9779 8.21333 16.8699C8.10833 16.7533 8.02667 16.6249 7.96833 16.4849C7.90841 16.3447 7.87669 16.1941 7.875 16.0416C7.875 15.7383 8.00333 15.4349 8.21333 15.2133C8.645 14.7816 9.43833 14.7816 9.87 15.2133C10.08 15.4349 10.2083 15.7383 10.2083 16.0416C10.2083 16.1933 10.1733 16.3449 10.115 16.4849C10.0567 16.6249 9.975 16.7533 9.87 16.8699C9.64833 17.0799 9.345 17.2083 9.04167 17.2083ZM18.9583 17.2083C18.655 17.2083 18.3517 17.0799 18.13 16.8699C17.92 16.6483 17.7917 16.3449 17.7917 16.0416C17.7917 15.7383 17.92 15.4349 18.13 15.2133C18.5617 14.7816 19.3433 14.7816 19.7867 15.2133C19.9967 15.4349 20.125 15.7383 20.125 16.0416C20.125 16.1233 20.1133 16.1933 20.1017 16.2749C20.09 16.3449 20.0667 16.4149 20.0317 16.4849C20.0083 16.5549 19.9733 16.6249 19.9267 16.6833C19.88 16.7533 19.8333 16.8116 19.7867 16.8699C19.565 17.0799 19.2617 17.2083 18.9583 17.2083Z" fill="#EDC3C4"/>
<path opacity="0.4" d="M9.04171 20.7083C8.92419 20.7126 8.80702 20.6932 8.69718 20.6512C8.58734 20.6092 8.4871 20.5455 8.40245 20.4638C8.31779 20.3822 8.25045 20.2844 8.20446 20.1761C8.15847 20.0679 8.13477 19.9515 8.13477 19.8339C8.13477 19.7163 8.15847 19.5999 8.20446 19.4917C8.25045 19.3835 8.31779 19.2856 8.40245 19.204C8.4871 19.1224 8.58734 19.0587 8.69718 19.0167C8.80702 18.9747 8.92419 18.9552 9.04171 18.9595C9.26809 18.9678 9.48245 19.0635 9.63968 19.2266C9.79691 19.3897 9.88477 19.6074 9.88477 19.8339C9.88477 20.0605 9.79691 20.2782 9.63968 20.4412C9.48245 20.6043 9.26809 20.7001 9.04171 20.7083ZM18.9584 20.7083C18.727 20.7049 18.5058 20.6131 18.34 20.4517C18.2571 20.3739 18.1932 20.2781 18.1534 20.1717C18.1062 20.0651 18.0819 19.9499 18.0819 19.8333C18.0819 19.7168 18.1062 19.6016 18.1534 19.495C18.2 19.39 18.2584 19.2967 18.34 19.215C18.4217 19.1333 18.515 19.075 18.62 19.0283C18.7268 18.9821 18.842 18.9583 18.9584 18.9583C19.0748 18.9583 19.1899 18.9821 19.2967 19.0283C19.4017 19.075 19.495 19.1333 19.5767 19.215C19.7381 19.3807 19.83 19.602 19.8334 19.8333C19.83 20.0647 19.7381 20.2859 19.5767 20.4517C19.4128 20.6158 19.1904 20.7081 18.9584 20.7083Z" fill="#E8D4B9"/>
<path opacity="0.2" d="M9.04163 23.3333C8.88996 23.3333 8.73829 23.275 8.63329 23.1583C8.57725 23.1062 8.53273 23.043 8.50259 22.9727C8.47245 22.9023 8.45736 22.8265 8.45829 22.75C8.46768 22.6016 8.53322 22.4625 8.64159 22.3607C8.74995 22.259 8.893 22.2024 9.04163 22.2024C9.19026 22.2024 9.3333 22.259 9.44167 22.3607C9.55003 22.4625 9.61557 22.6016 9.62496 22.75C9.62496 22.9016 9.56663 23.0533 9.44996 23.1583C9.34496 23.275 9.19329 23.3333 9.04163 23.3333ZM18.9583 23.3333C18.8766 23.3333 18.8066 23.3216 18.7366 23.2866C18.6637 23.262 18.599 23.2176 18.55 23.1583C18.4907 23.1092 18.4462 23.0446 18.4216 22.9716C18.3884 22.9026 18.3724 22.8266 18.375 22.75C18.3843 22.6016 18.4499 22.4625 18.5583 22.3607C18.6666 22.259 18.8097 22.2024 18.9583 22.2024C19.1069 22.2024 19.25 22.259 19.3583 22.3607C19.4667 22.4625 19.5322 22.6016 19.5416 22.75C19.5416 22.8316 19.53 22.9016 19.495 22.9716C19.4716 23.0416 19.425 23.1116 19.3666 23.1583C19.3145 23.2144 19.2513 23.2589 19.181 23.289C19.1107 23.3192 19.0348 23.3342 18.9583 23.3333Z" fill="#E8D4B9"/>
</svg>
