<svg width="27" height="27" viewBox="0 0 27 27" fill="none" xmlns="http://www.w3.org/2000/svg">
<g id="Iconsax/Bulk/gallery">
<path id="Vector" opacity="0.4" d="M24.75 8.78625V15.6375L22.9163 14.0625C22.0388 13.3088 20.6212 13.3088 19.7437 14.0625L15.0638 18.0787C14.1863 18.8325 12.7687 18.8325 11.8912 18.0787L11.5087 17.7638C10.71 17.0662 9.43875 16.9987 8.53875 17.6062L3.00375 21.3188L2.88 21.4088C2.46375 20.5088 2.25 19.44 2.25 18.2138V8.78625C2.25 4.69125 4.69125 2.25 8.78625 2.25H18.2138C22.3088 2.25 24.75 4.69125 24.75 8.78625Z" fill="#D68B92"/>
<path id="Vector_2" d="M10.1262 11.6786C10.8363 11.6786 11.5173 11.3965 12.0194 10.8944C12.5216 10.3923 12.8037 9.71123 12.8037 9.00111C12.8037 8.29099 12.5216 7.60996 12.0194 7.10783C11.5173 6.6057 10.8363 6.32361 10.1262 6.32361C9.41604 6.32361 8.73501 6.6057 8.23288 7.10783C7.73075 7.60996 7.44866 8.29099 7.44866 9.00111C7.44866 9.71123 7.73075 10.3923 8.23288 10.8944C8.73501 11.3965 9.41604 11.6786 10.1262 11.6786ZM24.7489 15.6364V18.2126C24.7489 22.3076 22.3077 24.7489 18.2127 24.7489H8.78516C5.91641 24.7489 3.84641 23.5451 2.87891 21.4076L3.00266 21.3176L8.53766 17.6051C9.43766 16.9976 10.7089 17.0651 11.5077 17.7626L11.8902 18.0776C12.7677 18.8314 14.1852 18.8314 15.0627 18.0776L19.7427 14.0614C20.6202 13.3076 22.0377 13.3076 22.9152 14.0614L24.7489 15.6364Z" fill="#666666"/>
</g>
</svg>
