<svg width="24" height="24" viewBox="0 0 24 24" fill="none" xmlns="http://www.w3.org/2000/svg">
<path d="M11.9999 13.4299C12.4096 13.4299 12.8153 13.3492 13.1939 13.1924C13.5724 13.0357 13.9163 12.8058 14.2061 12.5161C14.4958 12.2264 14.7256 11.8824 14.8824 11.5039C15.0392 11.1254 15.1199 10.7197 15.1199 10.3099C15.1199 9.90022 15.0392 9.49451 14.8824 9.11597C14.7256 8.73743 14.4958 8.39349 14.2061 8.10377C13.9163 7.81405 13.5724 7.58423 13.1939 7.42744C12.8153 7.27064 12.4096 7.18994 11.9999 7.18994C11.1724 7.18994 10.3788 7.51865 9.79371 8.10377C9.2086 8.68888 8.87988 9.48247 8.87988 10.3099C8.87988 11.1374 9.2086 11.931 9.79371 12.5161C10.3788 13.1012 11.1724 13.4299 11.9999 13.4299V13.4299Z" stroke="#48B7E2" stroke-width="1.5"/>
<path d="M3.61995 8.49C5.58995 -0.169998 18.42 -0.159997 20.38 8.5C21.53 13.58 18.37 17.88 15.6 20.54C14.632 21.4735 13.3397 21.9952 11.995 21.9952C10.6502 21.9952 9.35788 21.4735 8.38995 20.54C5.62995 17.88 2.46995 13.57 3.61995 8.49V8.49Z" stroke="#48B7E2" stroke-width="1.5"/>
</svg>
