<svg width="24" height="24" viewBox="0 0 24 24" fill="none" xmlns="http://www.w3.org/2000/svg">
<path opacity="0.4" d="M19 9C19 10.45 18.57 11.78 17.83 12.89C17.2878 13.6987 16.5825 14.3852 15.7593 14.9053C14.9361 15.4254 14.0133 15.7676 13.05 15.91C12.71 15.97 12.36 16 12 16C11.64 16 11.29 15.97 10.95 15.91C9.98681 15.7676 9.06399 15.4254 8.24082 14.9053C7.41764 14.3852 6.71229 13.6987 6.17005 12.89C5.40235 11.7383 4.99504 10.3841 5.00005 9C5.00005 5.13 8.13005 2 12 2C15.87 2 19 5.13 19 9Z" fill="black"/>
<path d="M21.2499 18.468L19.5999 18.858C19.2299 18.948 18.9399 19.228 18.8599 19.598L18.5099 21.068C18.467 21.2484 18.3747 21.4134 18.2434 21.5444C18.1121 21.6754 17.947 21.7673 17.7664 21.8099C17.5859 21.8524 17.3971 21.8439 17.2211 21.7853C17.0451 21.7267 16.8889 21.6203 16.7699 21.478L11.9999 15.998L7.22992 21.488C7.11094 21.6303 6.95472 21.7367 6.77874 21.7953C6.60276 21.8539 6.41395 21.8624 6.23341 21.8199C6.05287 21.7773 5.88772 21.6854 5.75642 21.5544C5.62512 21.4234 5.53285 21.2584 5.48992 21.078L5.13992 19.608C5.09737 19.4281 5.00563 19.2637 4.87494 19.133C4.74425 19.0023 4.57977 18.9105 4.39992 18.868L2.74992 18.478C2.57704 18.4366 2.41829 18.3499 2.28991 18.227C2.16153 18.104 2.06814 17.9491 2.0193 17.7782C1.97047 17.6072 1.96794 17.4264 2.01197 17.2542C2.05601 17.0819 2.14503 16.9245 2.26992 16.798L6.16992 12.898C6.71221 13.7067 7.41757 14.3931 8.24074 14.9132C9.0639 15.4333 9.9867 15.7755 10.9499 15.918C11.2899 15.978 11.6399 16.008 11.9999 16.008C12.3599 16.008 12.7099 15.978 13.0499 15.918C15.0399 15.628 16.7499 14.498 17.8299 12.898L21.7299 16.798C22.2799 17.338 22.0099 18.288 21.2499 18.468ZM12.5799 5.98L13.1699 7.16C13.2499 7.32 13.4599 7.48 13.6499 7.51L14.7199 7.69C15.3999 7.8 15.5599 8.3 15.0699 8.79L14.2399 9.62C14.0999 9.76 14.0199 10.03 14.0699 10.23L14.3099 11.26C14.4999 12.07 14.0699 12.39 13.3499 11.96L12.3499 11.37C12.2484 11.3158 12.135 11.2875 12.0199 11.2875C11.9048 11.2875 11.7915 11.3158 11.6899 11.37L10.6899 11.96C9.96992 12.38 9.53992 12.07 9.72992 11.26L9.96992 10.23C10.0099 10.04 9.93992 9.76 9.79992 9.62L8.96992 8.79C8.47992 8.3 8.63992 7.81 9.31992 7.69L10.3899 7.51C10.5699 7.48 10.7799 7.32 10.8599 7.16L11.4499 5.98C11.7399 5.34 12.2599 5.34 12.5799 5.98Z" fill="black"/>
</svg>
